<?xml version="1.0" encoding="UTF-8" standalone="no"?>
<svg
   xmlns:dc="http://purl.org/dc/elements/1.1/"
   xmlns:cc="http://creativecommons.org/ns#"
   xmlns:rdf="http://www.w3.org/1999/02/22-rdf-syntax-ns#"
   xmlns:svg="http://www.w3.org/2000/svg"
   xmlns="http://www.w3.org/2000/svg"
   xmlns:sodipodi="http://sodipodi.sourceforge.net/DTD/sodipodi-0.dtd"
   xmlns:inkscape="http://www.inkscape.org/namespaces/inkscape"
   width="500"
   height="500"
   viewBox="0 0 132.29166 132.29167"
   version="1.1"
   id="svg1306"
   inkscape:version="1.0.1 (3bc2e813f5, 2020-09-07)"
   sodipodi:docname="Tatra Foundation Logo color.svg">
  <defs
     id="defs1300" />
  <sodipodi:namedview
     id="base"
     pagecolor="#ffffff"
     bordercolor="#666666"
     borderopacity="1.0"
     inkscape:pageopacity="0.0"
     inkscape:pageshadow="2"
     inkscape:zoom="0.78377356"
     inkscape:cx="-193.27569"
     inkscape:cy="331.16893"
     inkscape:document-units="mm"
     inkscape:current-layer="layer1"
     inkscape:document-rotation="0"
     showgrid="false"
     inkscape:window-width="1920"
     inkscape:window-height="1017"
     inkscape:window-x="-8"
     inkscape:window-y="-8"
     inkscape:window-maximized="1"
     units="px"
     showborder="true"
     inkscape:object-paths="true"
     inkscape:snap-intersection-paths="true"
     inkscape:snap-smooth-nodes="true" />
  <metadata
     id="metadata1303">
    <rdf:RDF>
      <cc:Work
         rdf:about="">
        <dc:format>image/svg+xml</dc:format>
        <dc:type
           rdf:resource="http://purl.org/dc/dcmitype/StillImage" />
        <dc:title></dc:title>
      </cc:Work>
    </rdf:RDF>
  </metadata>
  <g
     inkscape:label="Warstwa 1"
     inkscape:groupmode="layer"
     id="layer1">
    <path
       id="rect831"
       style="fill:#ff8100;stroke:none;stroke-width:0.187427;stroke-linecap:square;paint-order:markers stroke fill;fill-opacity:1"
       d="M 66.147304,2.6458359 C 46.655826,22.119735 27.164399,41.593866 7.6729209,61.067765 24.496175,83.927148 41.31937,106.78645 58.142624,129.64584 h 6.126651 V 47.462584 l 1.877288,-1.875643 1.877299,1.875643 v 82.180696 h 6.12665 v -3.8e-4 C 90.973301,106.78399 107.79596,83.925227 124.61875,61.066303 105.1282,41.592864 85.63786,22.119274 66.147304,2.6458359 Z m 0,16.2594771 C 80.13231,32.876178 94.116174,46.84834 108.09888,60.821511 96.783833,77.180786 85.466427,93.538388 74.150512,109.89706 V 53.583855 L 86.986118,66.408189 91.840123,59.391178 72.085339,39.653381 66.146563,33.71982 60.207788,39.653381 40.453009,59.391178 45.307022,66.408189 58.142624,53.583855 V 109.89853 C 46.826716,93.539384 35.509307,77.181239 24.19426,60.821511 38.17741,46.848331 52.161842,32.876188 66.147304,18.905313 Z" />
  </g>
</svg>
