<?xml version="1.0" encoding="UTF-8" standalone="no"?>
<svg
   xmlns:dc="http://purl.org/dc/elements/1.1/"
   xmlns:cc="http://creativecommons.org/ns#"
   xmlns:rdf="http://www.w3.org/1999/02/22-rdf-syntax-ns#"
   xmlns:svg="http://www.w3.org/2000/svg"
   xmlns="http://www.w3.org/2000/svg"
   xmlns:sodipodi="http://sodipodi.sourceforge.net/DTD/sodipodi-0.dtd"
   xmlns:inkscape="http://www.inkscape.org/namespaces/inkscape"
   width="480"
   height="490"
   viewBox="0 0 127 129.64584"
   version="1.1"
   id="svg1306"
   inkscape:version="1.0.1 (3bc2e813f5, 2020-09-07)"
   sodipodi:docname="Tatra Foundation Logo.svg">
  <defs
     id="defs1300" />
  <sodipodi:namedview
     id="base"
     pagecolor="#ffffff"
     bordercolor="#666666"
     borderopacity="1.0"
     inkscape:pageopacity="0.0"
     inkscape:pageshadow="2"
     inkscape:zoom="0.66347774"
     inkscape:cx="-193.27569"
     inkscape:cy="331.16893"
     inkscape:document-units="mm"
     inkscape:current-layer="layer1"
     inkscape:document-rotation="0"
     showgrid="false"
     inkscape:window-width="1920"
     inkscape:window-height="1017"
     inkscape:window-x="-8"
     inkscape:window-y="-8"
     inkscape:window-maximized="1"
     units="px"
     showborder="false"
     inkscape:object-paths="true"
     inkscape:snap-intersection-paths="true"
     inkscape:snap-smooth-nodes="true" />
  <metadata
     id="metadata1303">
    <rdf:RDF>
      <cc:Work
         rdf:about="">
        <dc:format>image/svg+xml</dc:format>
        <dc:type
           rdf:resource="http://purl.org/dc/dcmitype/StillImage" />
        <dc:title />
      </cc:Work>
    </rdf:RDF>
  </metadata>
  <g
     inkscape:label="Warstwa 1"
     inkscape:groupmode="layer"
     id="layer1">
    <path
       id="rect831"
       style="fill:#000000;stroke:none;stroke-width:0.187345;stroke-linecap:square;paint-order:markers stroke fill"
       d="M 58.42303,0 C 38.94867,19.473899 19.47436,38.94803 0,58.421929 16.80848,81.281312 33.6169,104.14061 50.42538,127 h 6.12127 V 44.816748 l 1.87564,-1.875643 1.87565,1.875643 v 82.180692 h 6.12127 v -3.8e-4 C 83.227225,104.13815 100.03511,81.279391 116.84313,58.420467 97.369689,38.947028 77.896469,19.473438 58.42303,0 Z m 0,16.259477 C 72.395754,30.230342 86.367337,44.202504 100.33776,58.175675 89.032654,74.53495 77.725187,90.892552 66.41921,107.25122 V 50.938019 L 79.243543,63.762353 84.093285,56.745342 64.35585,37.007545 58.42229,31.073984 52.48873,37.007545 32.7513,56.745342 37.60105,63.762353 50.42538,50.938019 V 107.25269 C 39.11941,90.893548 27.81194,74.535403 16.50683,58.175675 30.4777,44.202495 44.44985,30.230352 58.42303,16.259477 Z" />
  </g>
</svg>
